# xmcd CD database file
#
# Track frame offsets:
#	150
#	12734
#	25160
#	38289
#	50953
#	62890
#	75889
#	88293
#	101647
#	113966
#	126010
#	137044
#	148763
#	159717
#	171219
#	183038
#	194007
#	206456
#	219757
#	232149
#	245313
#	259162
#	271096
#	282935
#	294094
#	303323
#	315934
#	327135
#	341791
#
# Disc length: 4724 seconds
#
# Revision: 0
# Processed by: cddbd v1.5.2PL0 Copyright (c) Steve Scherf et al.
# Submitted via: CDex 1.51
#
DISCID=a312721d
DTITLE=Hank Williams - Mother's Best
DYEAR=1900
DGENRE=Country
TTITLE0=Move it on over
TTITLE1=My sweet love ain't around
TTITLE2=Calling you
TTITLE3=Rootie tootie
TTITLE4=I'll be a bachelor till I die
TTITLE5=I'm a long gone daddy
TTITLE6=The blues comes around
TTITLE7=Mind your own business
TTITLE8=Lost Highway
TTITLE9=Long gone lonesome blues
TTITLE10=Why don't you love me
TTITLE11=My son calls another man daddy
TTITLE12=Moanin the blues
TTITLE13=Nobody's lonesome for me
TTITLE14=Dear John
TTITLE15=I can't help it (if I'm still in love with you)
TTITLE16=Howlin' at the moon
TTITLE17=Hey, good lookin'
TTITLE18=Half as much
TTITLE19=Jambalaya (on the bayou)
TTITLE20=Ramblin' man
TTITLE21=Settin' the woods on fire
TTITLE22=Kaw-Liga
TTITLE23=I'll never get out of this world alive
TTITLE24=Alone and forsaken
TTITLE25=I won't be home no more
TTITLE26=Weary blues from waiting
TTITLE27=At the first fall of snow
TTITLE28=There's a tear in my beer
EXTD=
EXTT0=
EXTT1=
EXTT2=
EXTT3=
EXTT4=
EXTT5=
EXTT6=
EXTT7=
EXTT8=
EXTT9=
EXTT10=
EXTT11=
EXTT12=
EXTT13=
EXTT14=
EXTT15=
EXTT16=
EXTT17=
EXTT18=
EXTT19=
EXTT20=
EXTT21=
EXTT22=
EXTT23=
EXTT24=
EXTT25=
EXTT26=
EXTT27=
EXTT28=
PLAYORDER=
